<svg width="1112" height="156" viewBox="0 0 1112 156" fill="none" xmlns="http://www.w3.org/2000/svg">
<g filter="url(#filter0_d_2012_6822)">
<mask id="path-1-outside-1_2012_6822" maskUnits="userSpaceOnUse" x="0" y="78.001" width="1108" height="74" fill="black">
<rect fill="white" y="78.001" width="1108" height="74"/>
<path d="M4 149.121L34.912 80.481H58.624L89.536 149.121H72.832L66.304 134.625H27.232L20.704 149.121H4ZM32.8 122.145H60.736L47.392 92.481H46.144L32.8 122.145Z"/>
<path d="M97.2288 149.121V80.481H112.781L161.357 129.825V80.481H176.717V149.121H161.165L112.589 99.681V149.121H97.2288Z"/>
<path d="M184.375 149.121L215.287 80.481H238.999L269.911 149.121H253.207L246.679 134.625H207.607L201.079 149.121H184.375ZM213.175 122.145H241.111L227.767 92.481H226.519L213.175 122.145Z"/>
<path d="M265.641 115.233V80.481H350.121V115.233H334.569V92.961H313.641V149.121H298.281V92.961H281.193V115.233H265.641Z"/>
<path d="M395.791 149.601C383.567 149.601 374.095 146.689 367.375 140.865C360.655 134.977 357.295 126.273 357.295 114.753C357.295 103.297 360.655 94.657 367.375 88.833C374.095 82.945 383.791 80.001 396.463 80.001H413.743C426.415 80.001 436.111 82.945 442.831 88.833C449.551 94.657 452.911 103.297 452.911 114.753C452.911 126.273 449.551 134.977 442.831 140.865C436.111 146.689 426.575 149.601 414.223 149.601H395.791ZM397.519 92.481C390.415 92.481 384.879 93.761 380.911 96.321C376.943 98.881 374.447 102.945 373.423 108.513H436.783C435.759 102.945 433.263 98.881 429.295 96.321C425.327 93.761 419.791 92.481 412.687 92.481H397.519ZM397.807 137.121H412.687C419.855 137.121 425.391 135.841 429.295 133.281C433.263 130.721 435.759 126.625 436.783 120.993H373.423C374.447 126.625 376.943 130.721 380.911 133.281C384.879 135.841 390.511 137.121 397.807 137.121Z"/>
<path d="M462.479 149.121V80.481H477.839V136.641H528.047V149.121H462.479Z"/>
<path d="M537.666 149.121V80.481H553.026V149.121H537.666Z"/>
<path d="M597.802 149.601V137.121L665.002 137.217C667.818 137.217 669.962 136.577 671.434 135.297C672.97 133.953 673.738 131.809 673.738 128.865C673.738 125.921 672.97 123.809 671.434 122.529C669.962 121.185 667.818 120.513 665.002 120.513H618.634C611.53 120.513 605.994 118.817 602.026 115.425C598.122 111.969 596.17 106.913 596.17 100.257C596.17 93.601 598.122 88.577 602.026 85.185C605.994 81.729 611.53 80.001 618.634 80.001H684.586V92.481L620.266 92.385C617.514 92.385 615.37 93.025 613.834 94.305C612.298 95.521 611.53 97.505 611.53 100.257C611.53 103.009 612.298 105.025 613.834 106.305C615.37 107.521 617.514 108.129 620.266 108.129H666.634C673.738 108.129 679.242 109.889 683.146 113.409C687.114 116.865 689.098 122.017 689.098 128.865C689.098 135.649 687.114 140.801 683.146 144.321C679.242 147.841 673.738 149.601 666.634 149.601H597.802Z"/>
<path d="M696.329 115.233V80.481H780.809V115.233H765.257V92.961H744.329V149.121H728.969V92.961H711.881V115.233H696.329Z"/>
<path d="M819.567 149.601C812.591 149.601 807.086 148.705 803.055 146.913C799.023 145.057 796.143 142.273 794.414 138.561C792.686 134.849 791.823 130.177 791.823 124.545V80.481H807.182V124.545C807.182 129.409 808.302 132.737 810.542 134.529C812.846 136.257 816.719 137.121 822.159 137.121H837.269C842.709 137.121 846.549 136.257 848.789 134.529C851.093 132.737 852.245 129.409 852.245 124.545V80.481H867.605V124.545C867.605 130.177 866.741 134.849 865.013 138.561C863.285 142.273 860.405 145.057 856.373 146.913C852.341 148.705 846.837 149.601 839.861 149.601H819.567Z"/>
<path d="M881.03 149.121V80.481H892.358L936.078 80.385C948.494 80.385 958.126 83.297 964.974 89.121C971.822 94.945 975.246 103.489 975.246 114.753C975.246 126.017 971.822 134.561 964.974 140.385C958.126 146.209 948.494 149.121 936.078 149.121H881.03ZM935.022 92.865H896.39V136.641H935.022C943.086 136.641 949.198 134.881 953.358 131.361C957.518 127.841 959.598 122.305 959.598 114.753C959.598 107.137 957.518 101.601 953.358 98.145C949.198 94.625 943.086 92.865 935.022 92.865Z"/>
<path d="M984.874 149.121V80.481H1000.23V149.121H984.874Z"/>
<path d="M1048.31 149.601C1036.09 149.601 1026.61 146.689 1019.89 140.865C1013.17 134.977 1009.81 126.273 1009.81 114.753C1009.81 103.297 1013.17 94.657 1019.89 88.833C1026.61 82.945 1036.31 80.001 1048.98 80.001H1066.26C1078.93 80.001 1088.63 82.945 1095.35 88.833C1102.07 94.657 1105.43 103.297 1105.43 114.753C1105.43 126.273 1102.07 134.977 1095.35 140.865C1088.63 146.689 1079.09 149.601 1066.74 149.601H1048.31ZM1050.04 92.481C1042.93 92.481 1037.4 93.761 1033.43 96.321C1029.46 98.881 1026.97 102.945 1025.94 108.513H1089.3C1088.28 102.945 1085.78 98.881 1081.81 96.321C1077.85 93.761 1072.31 92.481 1065.21 92.481H1050.04ZM1050.33 137.121H1065.21C1072.37 137.121 1077.91 135.841 1081.81 133.281C1085.78 130.721 1088.28 126.625 1089.3 120.993H1025.94C1026.97 126.625 1029.46 130.721 1033.43 133.281C1037.4 135.841 1043.03 137.121 1050.33 137.121Z"/>
</mask>
<path d="M4 149.121L34.912 80.481H58.624L89.536 149.121H72.832L66.304 134.625H27.232L20.704 149.121H4ZM32.8 122.145H60.736L47.392 92.481H46.144L32.8 122.145Z" fill="#101114"/>
<path d="M97.2288 149.121V80.481H112.781L161.357 129.825V80.481H176.717V149.121H161.165L112.589 99.681V149.121H97.2288Z" fill="#101114"/>
<path d="M184.375 149.121L215.287 80.481H238.999L269.911 149.121H253.207L246.679 134.625H207.607L201.079 149.121H184.375ZM213.175 122.145H241.111L227.767 92.481H226.519L213.175 122.145Z" fill="#101114"/>
<path d="M265.641 115.233V80.481H350.121V115.233H334.569V92.961H313.641V149.121H298.281V92.961H281.193V115.233H265.641Z" fill="#101114"/>
<path d="M395.791 149.601C383.567 149.601 374.095 146.689 367.375 140.865C360.655 134.977 357.295 126.273 357.295 114.753C357.295 103.297 360.655 94.657 367.375 88.833C374.095 82.945 383.791 80.001 396.463 80.001H413.743C426.415 80.001 436.111 82.945 442.831 88.833C449.551 94.657 452.911 103.297 452.911 114.753C452.911 126.273 449.551 134.977 442.831 140.865C436.111 146.689 426.575 149.601 414.223 149.601H395.791ZM397.519 92.481C390.415 92.481 384.879 93.761 380.911 96.321C376.943 98.881 374.447 102.945 373.423 108.513H436.783C435.759 102.945 433.263 98.881 429.295 96.321C425.327 93.761 419.791 92.481 412.687 92.481H397.519ZM397.807 137.121H412.687C419.855 137.121 425.391 135.841 429.295 133.281C433.263 130.721 435.759 126.625 436.783 120.993H373.423C374.447 126.625 376.943 130.721 380.911 133.281C384.879 135.841 390.511 137.121 397.807 137.121Z" fill="#101114"/>
<path d="M462.479 149.121V80.481H477.839V136.641H528.047V149.121H462.479Z" fill="#101114"/>
<path d="M537.666 149.121V80.481H553.026V149.121H537.666Z" fill="#101114"/>
<path d="M597.802 149.601V137.121L665.002 137.217C667.818 137.217 669.962 136.577 671.434 135.297C672.97 133.953 673.738 131.809 673.738 128.865C673.738 125.921 672.97 123.809 671.434 122.529C669.962 121.185 667.818 120.513 665.002 120.513H618.634C611.53 120.513 605.994 118.817 602.026 115.425C598.122 111.969 596.17 106.913 596.17 100.257C596.17 93.601 598.122 88.577 602.026 85.185C605.994 81.729 611.53 80.001 618.634 80.001H684.586V92.481L620.266 92.385C617.514 92.385 615.37 93.025 613.834 94.305C612.298 95.521 611.53 97.505 611.53 100.257C611.53 103.009 612.298 105.025 613.834 106.305C615.37 107.521 617.514 108.129 620.266 108.129H666.634C673.738 108.129 679.242 109.889 683.146 113.409C687.114 116.865 689.098 122.017 689.098 128.865C689.098 135.649 687.114 140.801 683.146 144.321C679.242 147.841 673.738 149.601 666.634 149.601H597.802Z" fill="#101114"/>
<path d="M696.329 115.233V80.481H780.809V115.233H765.257V92.961H744.329V149.121H728.969V92.961H711.881V115.233H696.329Z" fill="#101114"/>
<path d="M819.567 149.601C812.591 149.601 807.086 148.705 803.055 146.913C799.023 145.057 796.143 142.273 794.414 138.561C792.686 134.849 791.823 130.177 791.823 124.545V80.481H807.182V124.545C807.182 129.409 808.302 132.737 810.542 134.529C812.846 136.257 816.719 137.121 822.159 137.121H837.269C842.709 137.121 846.549 136.257 848.789 134.529C851.093 132.737 852.245 129.409 852.245 124.545V80.481H867.605V124.545C867.605 130.177 866.741 134.849 865.013 138.561C863.285 142.273 860.405 145.057 856.373 146.913C852.341 148.705 846.837 149.601 839.861 149.601H819.567Z" fill="#101114"/>
<path d="M881.03 149.121V80.481H892.358L936.078 80.385C948.494 80.385 958.126 83.297 964.974 89.121C971.822 94.945 975.246 103.489 975.246 114.753C975.246 126.017 971.822 134.561 964.974 140.385C958.126 146.209 948.494 149.121 936.078 149.121H881.03ZM935.022 92.865H896.39V136.641H935.022C943.086 136.641 949.198 134.881 953.358 131.361C957.518 127.841 959.598 122.305 959.598 114.753C959.598 107.137 957.518 101.601 953.358 98.145C949.198 94.625 943.086 92.865 935.022 92.865Z" fill="#101114"/>
<path d="M984.874 149.121V80.481H1000.23V149.121H984.874Z" fill="#101114"/>
<path d="M1048.31 149.601C1036.09 149.601 1026.61 146.689 1019.89 140.865C1013.17 134.977 1009.81 126.273 1009.81 114.753C1009.81 103.297 1013.17 94.657 1019.89 88.833C1026.61 82.945 1036.31 80.001 1048.98 80.001H1066.26C1078.93 80.001 1088.63 82.945 1095.35 88.833C1102.07 94.657 1105.43 103.297 1105.43 114.753C1105.43 126.273 1102.07 134.977 1095.35 140.865C1088.63 146.689 1079.09 149.601 1066.74 149.601H1048.31ZM1050.04 92.481C1042.93 92.481 1037.4 93.761 1033.43 96.321C1029.46 98.881 1026.97 102.945 1025.94 108.513H1089.3C1088.28 102.945 1085.78 98.881 1081.81 96.321C1077.85 93.761 1072.31 92.481 1065.21 92.481H1050.04ZM1050.33 137.121H1065.21C1072.37 137.121 1077.91 135.841 1081.81 133.281C1085.78 130.721 1088.28 126.625 1089.3 120.993H1025.94C1026.97 126.625 1029.46 130.721 1033.43 133.281C1037.4 135.841 1043.03 137.121 1050.33 137.121Z" fill="#101114"/>
<path d="M4 149.121L34.912 80.481H58.624L89.536 149.121H72.832L66.304 134.625H27.232L20.704 149.121H4ZM32.8 122.145H60.736L47.392 92.481H46.144L32.8 122.145Z" stroke="#FC3F3F" stroke-width="4" mask="url(#path-1-outside-1_2012_6822)"/>
<path d="M97.2288 149.121V80.481H112.781L161.357 129.825V80.481H176.717V149.121H161.165L112.589 99.681V149.121H97.2288Z" stroke="#FC3F3F" stroke-width="4" mask="url(#path-1-outside-1_2012_6822)"/>
<path d="M184.375 149.121L215.287 80.481H238.999L269.911 149.121H253.207L246.679 134.625H207.607L201.079 149.121H184.375ZM213.175 122.145H241.111L227.767 92.481H226.519L213.175 122.145Z" stroke="#FC3F3F" stroke-width="4" mask="url(#path-1-outside-1_2012_6822)"/>
<path d="M265.641 115.233V80.481H350.121V115.233H334.569V92.961H313.641V149.121H298.281V92.961H281.193V115.233H265.641Z" stroke="#FC3F3F" stroke-width="4" mask="url(#path-1-outside-1_2012_6822)"/>
<path d="M395.791 149.601C383.567 149.601 374.095 146.689 367.375 140.865C360.655 134.977 357.295 126.273 357.295 114.753C357.295 103.297 360.655 94.657 367.375 88.833C374.095 82.945 383.791 80.001 396.463 80.001H413.743C426.415 80.001 436.111 82.945 442.831 88.833C449.551 94.657 452.911 103.297 452.911 114.753C452.911 126.273 449.551 134.977 442.831 140.865C436.111 146.689 426.575 149.601 414.223 149.601H395.791ZM397.519 92.481C390.415 92.481 384.879 93.761 380.911 96.321C376.943 98.881 374.447 102.945 373.423 108.513H436.783C435.759 102.945 433.263 98.881 429.295 96.321C425.327 93.761 419.791 92.481 412.687 92.481H397.519ZM397.807 137.121H412.687C419.855 137.121 425.391 135.841 429.295 133.281C433.263 130.721 435.759 126.625 436.783 120.993H373.423C374.447 126.625 376.943 130.721 380.911 133.281C384.879 135.841 390.511 137.121 397.807 137.121Z" stroke="#FC3F3F" stroke-width="4" mask="url(#path-1-outside-1_2012_6822)"/>
<path d="M462.479 149.121V80.481H477.839V136.641H528.047V149.121H462.479Z" stroke="#FC3F3F" stroke-width="4" mask="url(#path-1-outside-1_2012_6822)"/>
<path d="M537.666 149.121V80.481H553.026V149.121H537.666Z" stroke="#FC3F3F" stroke-width="4" mask="url(#path-1-outside-1_2012_6822)"/>
<path d="M597.802 149.601V137.121L665.002 137.217C667.818 137.217 669.962 136.577 671.434 135.297C672.97 133.953 673.738 131.809 673.738 128.865C673.738 125.921 672.97 123.809 671.434 122.529C669.962 121.185 667.818 120.513 665.002 120.513H618.634C611.53 120.513 605.994 118.817 602.026 115.425C598.122 111.969 596.17 106.913 596.17 100.257C596.17 93.601 598.122 88.577 602.026 85.185C605.994 81.729 611.53 80.001 618.634 80.001H684.586V92.481L620.266 92.385C617.514 92.385 615.37 93.025 613.834 94.305C612.298 95.521 611.53 97.505 611.53 100.257C611.53 103.009 612.298 105.025 613.834 106.305C615.37 107.521 617.514 108.129 620.266 108.129H666.634C673.738 108.129 679.242 109.889 683.146 113.409C687.114 116.865 689.098 122.017 689.098 128.865C689.098 135.649 687.114 140.801 683.146 144.321C679.242 147.841 673.738 149.601 666.634 149.601H597.802Z" stroke="#FC3F3F" stroke-width="4" mask="url(#path-1-outside-1_2012_6822)"/>
<path d="M696.329 115.233V80.481H780.809V115.233H765.257V92.961H744.329V149.121H728.969V92.961H711.881V115.233H696.329Z" stroke="#FC3F3F" stroke-width="4" mask="url(#path-1-outside-1_2012_6822)"/>
<path d="M819.567 149.601C812.591 149.601 807.086 148.705 803.055 146.913C799.023 145.057 796.143 142.273 794.414 138.561C792.686 134.849 791.823 130.177 791.823 124.545V80.481H807.182V124.545C807.182 129.409 808.302 132.737 810.542 134.529C812.846 136.257 816.719 137.121 822.159 137.121H837.269C842.709 137.121 846.549 136.257 848.789 134.529C851.093 132.737 852.245 129.409 852.245 124.545V80.481H867.605V124.545C867.605 130.177 866.741 134.849 865.013 138.561C863.285 142.273 860.405 145.057 856.373 146.913C852.341 148.705 846.837 149.601 839.861 149.601H819.567Z" stroke="#FC3F3F" stroke-width="4" mask="url(#path-1-outside-1_2012_6822)"/>
<path d="M881.03 149.121V80.481H892.358L936.078 80.385C948.494 80.385 958.126 83.297 964.974 89.121C971.822 94.945 975.246 103.489 975.246 114.753C975.246 126.017 971.822 134.561 964.974 140.385C958.126 146.209 948.494 149.121 936.078 149.121H881.03ZM935.022 92.865H896.39V136.641H935.022C943.086 136.641 949.198 134.881 953.358 131.361C957.518 127.841 959.598 122.305 959.598 114.753C959.598 107.137 957.518 101.601 953.358 98.145C949.198 94.625 943.086 92.865 935.022 92.865Z" stroke="#FC3F3F" stroke-width="4" mask="url(#path-1-outside-1_2012_6822)"/>
<path d="M984.874 149.121V80.481H1000.23V149.121H984.874Z" stroke="#FC3F3F" stroke-width="4" mask="url(#path-1-outside-1_2012_6822)"/>
<path d="M1048.31 149.601C1036.09 149.601 1026.61 146.689 1019.89 140.865C1013.17 134.977 1009.81 126.273 1009.81 114.753C1009.81 103.297 1013.17 94.657 1019.89 88.833C1026.61 82.945 1036.31 80.001 1048.98 80.001H1066.26C1078.93 80.001 1088.63 82.945 1095.35 88.833C1102.07 94.657 1105.43 103.297 1105.43 114.753C1105.43 126.273 1102.07 134.977 1095.35 140.865C1088.63 146.689 1079.09 149.601 1066.74 149.601H1048.31ZM1050.04 92.481C1042.93 92.481 1037.4 93.761 1033.43 96.321C1029.46 98.881 1026.97 102.945 1025.94 108.513H1089.3C1088.28 102.945 1085.78 98.881 1081.81 96.321C1077.85 93.761 1072.31 92.481 1065.21 92.481H1050.04ZM1050.33 137.121H1065.21C1072.37 137.121 1077.91 135.841 1081.81 133.281C1085.78 130.721 1088.28 126.625 1089.3 120.993H1025.94C1026.97 126.625 1029.46 130.721 1033.43 133.281C1037.4 135.841 1043.03 137.121 1050.33 137.121Z" stroke="#FC3F3F" stroke-width="4" mask="url(#path-1-outside-1_2012_6822)"/>
<path d="M473.798 63.6172L473.802 63.6207C480.768 69.6578 490.733 72.601 503.545 72.601H539.065H540.065V71.601V59.121V58.121H539.065H504.601C496.397 58.121 490.506 56.382 486.734 53.0908C482.999 49.7685 481.025 44.4037 481.025 36.753C481.025 29.0985 483.001 23.7706 486.731 20.5143C490.503 17.2212 496.395 15.481 504.601 15.481H538.105H539.105V14.481V2.19303V1.19857L538.111 1.19305L503.551 1.00105L503.55 1.00104C490.735 0.936324 480.766 3.87981 473.798 9.9849C466.803 16.1134 463.377 25.0959 463.377 36.753C463.377 48.4721 466.802 57.4876 473.798 63.6172ZM547.654 71.121V72.121H548.654H564.014H565.014V71.121V46.873H613.119L627.518 71.6239L627.807 72.121H628.382H645.854H647.644L646.706 70.5968L631.623 46.0983C636.446 45.0284 640.288 42.8099 643.076 39.4023C646.148 35.648 647.622 30.532 647.622 24.177C647.622 16.7071 645.588 10.9526 641.343 7.11735C637.2 3.31528 631.424 1.48103 624.158 1.48103H548.654H547.654V2.48103V71.121ZM628.091 30.5439L628.083 30.5511L628.075 30.5584C626.851 31.7296 624.993 32.393 622.335 32.393C622.335 32.393 622.335 32.393 622.334 32.393L565.014 32.2987V15.961H622.334C624.993 15.961 626.851 16.6244 628.075 17.7957L628.091 17.811L628.108 17.8256C629.319 18.885 630.07 20.8889 630.07 24.177C630.07 27.3881 629.324 29.413 628.091 30.5439ZM657.154 71.121V72.121H658.154H733.418H734.418V71.121V58.641V57.641H733.418H674.514V43.609H727.85H728.85V42.609V30.129V29.129H727.85H674.514V15.961H733.418H734.418V14.961V2.48103V1.48103H733.418H658.154H657.154V2.48103V71.121ZM737.264 70.7104L736.629 72.121H738.176H754.88H755.526L755.792 71.5316L762.054 57.625H799.833L806.096 71.5316L806.361 72.121H807.008H823.712H825.259L824.624 70.7104L793.712 2.0704L793.446 1.48103H792.8H769.088H768.441L768.176 2.0704L737.264 70.7104ZM818.442 37.233V38.233H819.442H834.994H835.994V37.233V15.961H851.082V71.121V72.121H852.082H867.442H868.442V71.121V15.961H887.37V37.233V38.233H888.37H903.922H904.922V37.233V2.48103V1.48103H903.922H819.442H818.442V2.48103V37.233ZM913.936 71.121V72.121H914.936H930.296H931.296V71.121V2.48103V1.48103H930.296H914.936H913.936V2.48103V71.121ZM966.997 71.5317L967.263 72.121H967.909H991.621H992.267L992.533 71.5317L1023.44 2.89166L1024.08 1.48103H1022.53H1005.83H1005.18L1004.92 2.07131L979.765 58.0695L954.613 2.07131L954.348 1.48103H953.701H936.997H935.45L936.085 2.89166L966.997 71.5317ZM1028.22 71.121V72.121H1029.22H1104.48H1105.48V71.121V58.641V57.641H1104.48H1045.58V43.609H1098.91H1099.91V42.609V30.129V29.129H1098.91H1045.58V15.961H1104.48H1105.48V14.961V2.48103V1.48103H1104.48H1029.22H1028.22V2.48103V71.121ZM768.522 43.145L780.944 15.5315L793.365 43.145H768.522Z" fill="#101114" stroke="#FC3F3F" stroke-width="2"/>
</g>
<defs>
<filter id="filter0_d_2012_6822" x="0.905884" y="0" width="1110.53" height="155.601" filterUnits="userSpaceOnUse" color-interpolation-filters="sRGB">
<feFlood flood-opacity="0" result="BackgroundImageFix"/>
<feColorMatrix in="SourceAlpha" type="matrix" values="0 0 0 0 0 0 0 0 0 0 0 0 0 0 0 0 0 0 127 0" result="hardAlpha"/>
<feOffset dx="2" dy="2"/>
<feGaussianBlur stdDeviation="1"/>
<feComposite in2="hardAlpha" operator="out"/>
<feColorMatrix type="matrix" values="0 0 0 0 0 0 0 0 0 0 0 0 0 0 0 0 0 0 0.3 0"/>
<feBlend mode="normal" in2="BackgroundImageFix" result="effect1_dropShadow_2012_6822"/>
<feBlend mode="normal" in="SourceGraphic" in2="effect1_dropShadow_2012_6822" result="shape"/>
</filter>
</defs>
</svg>
